HIERARCHY
ROOT Hips
{
	OFFSET -0.001795 -0.223333 0.028219
	CHANNELS 6 Xposition Yposition Zposition Zrotation Yrotation Xrotation 
	JOINT LeftUpLeg
	{
		OFFSET 0.069520 -0.091406 -0.006815
		CHANNELS 3 Zrotation Yrotation Xrotation
		JOINT LeftLeg
		{
			OFFSET 0.034277 -0.375199 -0.004496
			CHANNELS 3 Zrotation Yrotation Xrotation
			JOINT LeftFoot
			{
				OFFSET -0.013596 -0.397961 -0.043693
				CHANNELS 3 Zrotation Yrotation Xrotation
				JOINT LeftToe
				{
					OFFSET 0.026358 -0.055791 0.119288
					CHANNELS 3 Zrotation Yrotation Xrotation
					End Site
					{
						OFFSET 0.000000 0.000000 0.000000
					}
				}
			}
		}
	}
	JOINT RightUpLeg
	{
		OFFSET -0.067670 -0.090522 -0.004320
		CHANNELS 3 Zrotation Yrotation Xrotation
		JOINT RightLeg
		{
			OFFSET -0.038290 -0.382569 -0.008850
			CHANNELS 3 Zrotation Yrotation Xrotation
			JOINT RightFoot
			{
				OFFSET 0.015774 -0.398415 -0.042312
				CHANNELS 3 Zrotation Yrotation Xrotation
				JOINT RightToe
				{
					OFFSET -0.025372 -0.048144 0.123348
					CHANNELS 3 Zrotation Yrotation Xrotation
					End Site
					{
						OFFSET 0.000000 0.000000 0.000000
					}
				}
			}
		}
	}
	JOINT Spine
	{
		OFFSET -0.002533 0.108963 -0.026696
		CHANNELS 3 Zrotation Yrotation Xrotation
		JOINT Spine1
		{
			OFFSET 0.005487 0.135180 0.001092
			CHANNELS 3 Zrotation Yrotation Xrotation
			JOINT Spine2
			{
				OFFSET 0.001457 0.052922 0.025425
				CHANNELS 3 Zrotation Yrotation Xrotation
				JOINT Neck
				{
					OFFSET -0.002778 0.213870 -0.042857
					CHANNELS 3 Zrotation Yrotation Xrotation
					JOINT Head
					{
						OFFSET 0.005152 0.064970 0.051349
						CHANNELS 3 Zrotation Yrotation Xrotation
						End Site
						{
							OFFSET 0.000000 0.000000 0.000000
						}
					}
				}
				JOINT LeftShoulder
				{
					OFFSET 0.078845 0.121749 -0.034090
					CHANNELS 3 Zrotation Yrotation Xrotation
					JOINT LeftArm
					{
						OFFSET 0.090977 0.030469 -0.008868
						CHANNELS 3 Zrotation Yrotation Xrotation
						JOINT LeftForeArm
						{
							OFFSET 0.259612 -0.012772 -0.027456
							CHANNELS 3 Zrotation Yrotation Xrotation
							JOINT LeftHand
							{
								OFFSET 0.249234 0.008986 -0.001171
								CHANNELS 3 Zrotation Yrotation Xrotation
								End Site
								{
									OFFSET 0.000000 0.000000 0.000000
								}
							}
						}
					}
				}
				JOINT RightShoulder
				{
					OFFSET -0.081759 0.118833 -0.038615
					CHANNELS 3 Zrotation Yrotation Xrotation
					JOINT RightArm
					{
						OFFSET -0.096012 0.032551 -0.009143
						CHANNELS 3 Zrotation Yrotation Xrotation
						JOINT RightForeArm
						{
							OFFSET -0.253742 -0.013329 -0.021401
							CHANNELS 3 Zrotation Yrotation Xrotation
							JOINT RightHand
							{
								OFFSET -0.255298 0.007772 -0.005559
								CHANNELS 3 Zrotation Yrotation Xrotation
								End Site
								{
									OFFSET 0.000000 0.000000 0.000000
								}
							}
						}
					}
				}
			}
		}
	}
}
MOTION
Frames: 16
Frame Time: 0.050000
0.041320 0.948092 -0.051377 0.044872 -2.427181 10.565447 2.808530 -0.683891 -9.012087 2.986414 0.078595 -6.620532 -1.127606 2.874583 13.446599 0.000000 0.000000 0.000000 -1.783846 0.594053 -5.911576 -8.125401 -0.553397 -12.473737 2.250661 -3.381405 17.985860 0.000000 0.000000 0.000000 4.516560 0.395401 -7.106735 -0.887309 0.453472 -3.411911 -10.012421 5.260046 -3.799802 10.434534 -8.524409 1.157515 0.000000 0.000000 0.000000 10.074986 -3.382018 2.509755 2.891639 -65.061149 -7.223646 120.334523 -15.397765 -26.307240 0.000000 0.000000 0.000000 -2.851399 -4.422747 -1.356443 66.299945 42.095167 22.509641 -141.294091 52.448839 -97.920255 0.000000 0.000000 0.000000 
0.040599 0.948176 -0.052410 0.088044 -2.833121 10.370874 2.931425 -0.646630 -8.565240 2.719235 0.115918 -7.030002 -0.984205 3.115185 13.655791 0.000000 0.000000 0.000000 -2.023737 0.597593 -5.948211 -7.732776 -0.529405 -12.302337 2.422705 -3.112564 17.849053 0.000000 0.000000 0.000000 4.440446 0.375444 -6.811912 -0.960143 0.483833 -3.608844 -10.124403 5.028533 -3.618338 10.300287 -8.511743 1.519297 0.000000 0.000000 0.000000 9.257627 -3.928521 2.483112 3.316704 -65.891676 -7.456103 122.396428 -14.458495 -25.482228 0.000000 0.000000 0.000000 -1.821203 -3.532120 -1.117637 67.145108 43.308516 23.553277 -141.040805 52.169330 -97.499074 0.000000 0.000000 0.000000 
0.040027 0.948068 -0.053359 0.231553 -3.190951 10.225217 2.903089 -0.630979 -8.337556 2.517755 0.132845 -7.166534 -0.840190 3.328811 13.757275 0.000000 0.000000 0.000000 -2.154730 0.609040 -6.082335 -7.751896 -0.499903 -12.031227 2.551398 -2.882746 17.644076 0.000000 0.000000 0.000000 4.276849 0.363444 -6.649317 -1.154495 0.562417 -3.252313 -10.188853 4.905683 -3.774223 10.223265 -8.272145 0.951522 0.000000 0.000000 0.000000 8.583244 -4.643072 2.549126 2.530262 -66.959983 -7.041911 124.772955 -14.323103 -26.229496 0.000000 0.000000 0.000000 -1.243910 -2.891064 -0.930014 69.013544 44.337638 25.110208 -141.249276 51.481633 -97.189643 0.000000 0.000000 0.000000 
0.039687 0.947794 -0.054115 0.322030 -3.573839 9.951535 2.998976 -0.605067 -8.054493 2.166626 0.145733 -7.119258 -0.651998 3.562028 13.702169 0.000000 0.000000 0.000000 -2.188886 0.602859 -6.015509 -7.858514 -0.480429 -11.857400 2.707614 -2.609577 17.439345 0.000000 0.000000 0.000000 4.328437 0.351987 -6.416241 -1.391993 0.662597 -3.238787 -10.335535 4.761827 -3.571300 10.534301 -8.380406 0.439177 0.000000 0.000000 0.000000 7.094076 -5.441836 2.547063 0.344724 -67.797537 -5.672323 126.092106 -15.016239 -27.923731 0.000000 0.000000 0.000000 -0.475544 -2.059624 -0.684668 70.024684 45.127358 26.036971 -141.232996 50.585171 -96.191912 0.000000 0.000000 0.000000 
0.039461 0.947125 -0.054882 0.479453 -3.662129 9.688565 3.135166 -0.580047 -7.762204 1.634677 0.176007 -7.211743 -0.608848 3.586194 13.584374 0.000000 0.000000 0.000000 -2.445659 0.601164 -5.997933 -7.698540 -0.444682 -11.514705 2.656916 -2.552432 17.037400 0.000000 0.000000 0.000000 4.189374 0.335098 -6.198550 -1.381450 0.656774 -2.694155 -10.656434 4.309972 -3.675406 10.282965 -8.233153 0.700756 0.000000 0.000000 0.000000 5.800691 -5.927702 2.517004 -4.542581 -68.831911 -2.554801 127.469903 -17.069002 -32.215529 0.000000 0.000000 0.000000 0.162408 -1.023896 -0.352543 71.062400 46.286610 27.315323 -140.964555 50.020781 -95.333583 0.000000 0.000000 0.000000 
0.039202 0.946770 -0.055902 0.414302 -3.833834 9.456461 3.497834 -0.558424 -7.695120 1.139218 0.186280 -6.936829 -0.486066 3.708264 13.405669 0.000000 0.000000 0.000000 -2.458373 0.593673 -5.913622 -7.521274 -0.431708 -11.393342 2.720854 -2.407108 16.871469 0.000000 0.000000 0.000000 4.230516 0.307028 -5.809241 -1.363795 0.648521 -2.926593 -10.816940 4.388895 -3.565539 10.784219 -8.588761 0.509635 0.000000 0.000000 0.000000 4.345848 -7.261706 2.740355 -9.890428 -68.878135 0.859639 127.157830 -20.527221 -38.137784 0.000000 0.000000 0.000000 0.695456 -0.310875 -0.121791 71.493953 46.904682 27.986684 -141.259742 49.163652 -94.574656 0.000000 0.000000 0.000000 
0.038917 0.946425 -0.057279 0.404912 -3.697699 9.360557 3.813134 -0.553443 -7.841408 0.663804 0.199698 -6.691058 -0.525676 3.625733 13.281123 0.000000 0.000000 0.000000 -2.558135 0.585752 -5.820672 -7.272037 -0.440294 -11.483867 2.647411 -2.491485 16.831498 0.000000 0.000000 0.000000 4.210143 0.293997 -5.652969 -0.958261 0.471484 -2.785428 -11.361397 4.222903 -3.754807 11.183327 -8.995674 0.836978 0.000000 0.000000 0.000000 3.373264 -8.066990 2.887456 -17.093729 -68.873408 5.413459 125.955551 -24.140325 -43.528925 0.000000 0.000000 0.000000 1.291151 0.339194 0.092930 71.889415 47.499429 28.678709 -140.654719 48.732212 -93.079760 0.000000 0.000000 0.000000 
0.038727 0.946535 -0.058737 0.232452 -3.685124 9.313632 4.076793 -0.548089 -7.966685 0.573071 0.197371 -6.524860 -0.515147 3.640665 13.273144 0.000000 0.000000 0.000000 -2.195783 0.592026 -5.918427 -7.541834 -0.428711 -11.368933 2.680354 -2.469006 16.908739 0.000000 0.000000 0.000000 4.343655 0.266973 -5.309300 -0.793239 0.402167 -3.156663 -11.733684 4.144971 -3.766183 11.669309 -9.478113 1.146923 0.000000 0.000000 0.000000 2.804914 -9.056114 3.133332 -21.209594 -68.103323 7.891703 124.274264 -26.323873 -45.826959 0.000000 0.000000 0.000000 1.914914 1.090306 0.352681 71.162211 47.985729 28.642487 -139.265549 47.776938 -89.701701 0.000000 0.000000 0.000000 
0.038749 0.946389 -0.059919 0.284159 -3.414551 9.454185 4.265376 -0.562175 -8.334618 0.185917 0.212728 -6.377910 -0.638525 3.475184 13.272183 0.000000 0.000000 0.000000 -2.235605 0.589326 -5.881866 -7.552270 -0.467905 -11.752526 2.581575 -2.664477 17.102324 0.000000 0.000000 0.000000 4.401758 0.261748 -5.288139 -0.753856 0.385490 -2.999288 -11.855386 3.942742 -3.762581 11.907546 -9.747268 1.416489 0.000000 0.000000 0.000000 2.018916 -9.695737 3.268297 -24.559129 -67.691065 9.926462 124.023850 -28.615100 -49.269435 0.000000 0.000000 0.000000 2.378529 1.107010 0.344129 70.580774 47.891593 28.229219 -139.574002 47.107733 -89.158634 0.000000 0.000000 0.000000 
0.039105 0.946558 -0.060817 0.340747 -3.058835 9.572740 4.273113 -0.582819 -8.675085 0.069793 0.213277 -6.232172 -0.818812 3.247762 13.328406 0.000000 0.000000 0.000000 -2.105684 0.615549 -6.204649 -7.920182 -0.432465 -11.382299 2.390052 -2.928605 17.086686 0.000000 0.000000 0.000000 4.402520 0.253853 -5.229924 -0.538888 0.293789 -2.968342 -12.007340 3.514317 -3.752161 12.047666 -9.923605 1.671207 0.000000 0.000000 0.000000 1.572488 -10.481057 3.484290 -26.256405 -67.311357 10.960312 124.126922 -29.581920 -50.820512 0.000000 0.000000 0.000000 2.761155 1.674574 0.543932 69.603287 47.947822 27.675389 -139.172852 46.392615 -87.606104 0.000000 0.000000 0.000000 
0.039693 0.946530 -0.061683 0.580804 -2.985292 9.509245 4.020748 -0.611935 -8.994200 -0.005050 0.198021 -5.704387 -0.841807 3.194309 13.234197 0.000000 0.000000 0.000000 -2.393181 0.615945 -6.217698 -7.948627 -0.426765 -11.326245 2.327617 -3.009631 17.061305 0.000000 0.000000 0.000000 4.376856 0.245709 -5.136334 -0.623556 0.329449 -2.816107 -11.824287 3.383965 -3.634484 11.940234 -9.744488 1.369965 0.000000 0.000000 0.000000 1.379823 -11.346505 3.749199 -26.506866 -67.119123 11.108765 125.325470 -29.870149 -52.279958 0.000000 0.000000 0.000000 2.797545 2.076717 0.693000 69.136765 48.577064 27.850385 -138.598280 45.540140 -85.574452 0.000000 0.000000 0.000000 
0.040489 0.947027 -0.062706 0.952348 -2.538253 9.405135 3.727809 -0.638622 -9.141220 -0.264365 0.207945 -5.545966 -1.128482 2.856783 13.431285 0.000000 0.000000 0.000000 -2.758540 0.622027 -6.331414 -8.094891 -0.380514 -10.883326 2.061699 -3.368349 17.017339 0.000000 0.000000 0.000000 4.233639 0.238664 -5.082183 -0.788042 0.402268 -2.639232 -11.545590 2.677870 -3.485090 11.667227 -9.468776 1.261774 0.000000 0.000000 0.000000 0.931144 -12.104440 3.985231 -26.356641 -67.251987 11.213010 126.258128 -31.157912 -54.890347 0.000000 0.000000 0.000000 2.697187 3.188631 1.099559 67.511096 49.735006 27.689772 -136.241623 44.528819 -81.111122 0.000000 0.000000 0.000000 
0.041294 0.947262 -0.063683 1.314082 -2.276922 9.311677 3.317299 -0.672709 -9.332841 -0.313557 0.201061 -5.256689 -1.294236 2.654533 13.510029 0.000000 0.000000 0.000000 -3.190812 0.624541 -6.410378 -8.119673 -0.348319 -10.583239 1.885945 -3.598458 16.957272 0.000000 0.000000 0.000000 4.248425 0.242159 -5.135370 -0.693936 0.362534 -2.629858 -11.729905 2.719364 -3.335163 11.706517 -9.298336 0.493785 0.000000 0.000000 0.000000 1.237895 -13.141226 4.325931 -26.479455 -67.252918 11.210389 126.752735 -32.318203 -57.304936 0.000000 0.000000 0.000000 2.097587 3.877455 1.382059 67.525739 51.139948 28.819094 -134.995561 43.774680 -78.168520 0.000000 0.000000 0.000000 
0.041967 0.947600 -0.064441 1.607742 -1.940144 9.167446 2.991059 -0.703806 -9.530700 -0.362241 0.190195 -4.836203 -1.485480 2.408158 13.547670 0.000000 0.000000 0.000000 -3.608214 0.606060 -6.220936 -8.002787 -0.350364 -10.597947 1.714385 -3.858690 17.039544 0.000000 0.000000 0.000000 4.335849 0.255257 -5.287676 -0.744253 0.382953 -2.350864 -11.962674 2.794637 -3.325907 11.899397 -9.467792 0.492491 0.000000 0.000000 0.000000 1.488691 -14.431592 4.738058 -26.024170 -66.994446 10.777267 126.693141 -34.035398 -60.086231 0.000000 0.000000 0.000000 1.712285 4.693150 1.705262 67.157766 52.672168 29.873447 -133.961472 43.101310 -75.634453 0.000000 0.000000 0.000000 
0.042518 0.947550 -0.064940 1.973846 -1.463192 9.011602 2.649587 -0.741728 -9.784942 -0.501574 0.182389 -4.295868 -1.722093 2.070014 13.472370 0.000000 0.000000 0.000000 -3.923606 0.593520 -6.121027 -8.198369 -0.319030 -10.332139 1.426352 -4.222631 16.909542 0.000000 0.000000 0.000000 4.481593 0.246273 -5.178354 -0.799637 0.410133 -2.371294 -12.246136 2.922723 -3.261642 11.974984 -9.430738 0.097126 0.000000 0.000000 0.000000 1.170994 -15.201795 4.965250 -27.885852 -66.469705 11.658366 128.300628 -36.391248 -65.682383 0.000000 0.000000 0.000000 1.074768 5.363096 1.970210 67.407918 54.045089 31.231323 -133.828146 42.397486 -74.112750 0.000000 0.000000 0.000000 
0.042798 0.947621 -0.065402 2.311654 -0.924850 8.898641 2.225730 -0.777540 -9.920728 -0.409426 0.167395 -4.039028 -2.015425 1.684112 13.500618 0.000000 0.000000 0.000000 -4.227920 0.583078 -6.071164 -8.319269 -0.281684 -10.015054 1.109926 -4.632026 16.789464 0.000000 0.000000 0.000000 4.596381 0.256283 -5.302765 -0.722907 0.375409 -2.145003 -12.893413 3.222763 -3.390893 12.447254 -9.780334 -0.064346 0.000000 0.000000 0.000000 0.752379 -16.403914 5.318301 -29.193130 -65.505097 12.015973 129.360183 -38.231683 -70.143868 0.000000 0.000000 0.000000 0.772024 5.698537 2.115735 67.294918 54.851806 32.040159 -133.955325 41.782190 -72.880612 0.000000 0.000000 0.000000 
